<mxfile host="app.diagrams.net" modified="2020-09-16T10:39:14.150Z" agent="5.0 (Windows NT 10.0; Win64; x64) AppleWebKit/537.36 (KHTML, like Gecko) Chrome/85.0.4183.102 Safari/537.36" etag="N9xEaHA1qSeJKqcvNvEu" version="13.6.10" type="github">
  <diagram id="LX6zwZ_A8-U3DqjuQm4G" name="Page-1">
    <mxGraphModel dx="1911" dy="1063" grid="1" gridSize="10" guides="1" tooltips="1" connect="1" arrows="1" fold="1" page="1" pageScale="1" pageWidth="827" pageHeight="1169" math="0" shadow="0">
      <root>
        <mxCell id="0" />
        <mxCell id="1" parent="0" />
        <mxCell id="m4xRjhWuVDi_9xzCRnHj-1" value="" style="shape=image;verticalLabelPosition=bottom;labelBackgroundColor=#ffffff;verticalAlign=top;aspect=fixed;imageAspect=0;image=data:image/png,iVBORw0KGgoAAAANSUhEUgAAAHgAAACZCAYAAADkfP71AAAav0lEQVR4Ae2dB1QUSff2B3NYw6qkAREUc0QxgCiYwICiRFEUVFBZEFEkiEiWjIIBUFFBQUyLWdewSd2zK4Y1rQFEEcOCICCCimGf/6keym923mHVcYLN13VOnepU91Y/v7rVPdU9MzxwqV4rwKvXZ8edHDjA9bwTcIA5wPVcgXp+elwEc4DruQL1/PS4COYAs0+B9+/f4+3bN6ipeY13b9+guuoFXr+qxrs3r8Xmt29e49XLKlRXvwBZfvumBm9qavDPP+/xzz//sE8AoRbXmwh+/rwC5aXFKC99gvLSIlRVluHF8zK8fvkcleXFqHr+FK+rn6GmuhSvq0guQU1VCV5XFeP1i2K8KH+MyrJHzPKrF09R/bwYVRXFqCwrQtGTQlRVVgrJxp5F1gImkUWirrz0KZ7+/RDlz4pQXl6K0pIiFP39GI8fFeJBwT0U3M9D/t3byMu9idzbN3D75jXc/OsK/rpxBTevX8bNG5dx68afuH3zCvJuX0V+7jU8yL+Bxw9uovjRHZQV56Gy9B4qS/JRVHgbFWUleP/uHWsIsxIwgVtRWoziose4ePEifj1zFhcuXMTt27fxoKAADwsf4OHDBwzkx48LUfT4IYqfPELRk4d4VHgPhQV3UXj/Lh7cz0VB/m3cu3sTd3NvIPf2ddz660/cuHYR169cwOWLv+PXX07iQPZupG/bjCP7s1B4JwflJU84wLJU4N3bt7h29SouXLyAZ2XP8P79O/zz/i3ev3uDd29raq+jr/C25hXe1FTj7etqvHtdjZqXlXjxvBSV5U9rczGel/1dm58wZcWzx6h49gjlpY9QVvIQZSWFKC26h6eP7uDaxTPITN+CE8ePgrSBDYmVEVxdXY0bN67j5atKvHv3Bv98BuCqLwD8pOA6CvMu42D2HlRWvmADX3bORb98+RJ5ebmfDfjNy0pIA/Cxw9moqHjOAZaVAtXVL5Gff1dhgI8fyUZ5ebmsTk+qdlk5RFdVVePe/XxUv3yON+Rza80r1LyqRPWLMubaSj4qlRYXovjxPTx+cAeFd//C/dtXcefqeZw6uhdH9+0Q5O934Fh2Jk4e2oWfju3DmVOH8NvPx5Bz9gQu//ETrl48i1vX/kDezQsouHOZGZ4f5F7CiaP7UVbGAZZqTxQ2RgAf2JuFEB83/HR0B87/8j1+PLodR/akYE9aPNI3hGNj3AqsC1+GuJWLsMpnAQIXO2HpXGtYGOpivB4fZv/KGjBl1jVgNlALEwdrY7JBN0wb2RvWY/QwffwwOJiPgIutGbwXzsD61ZEoKysTbtJXu8zaCPZxdcJ4PS1sW7cSB3clYve2aGxPDsXmhABsiPJGQognYle4YZW3CwI9HOEzfzrcZ07G9JFdYGPAF5+H8WEzjA/rYXxYDuNj2hA+LAbzMWkQH6YD+BjVRx1GvdThPNOaAyzLLk0iOMDNCdP0OyFtrT8O7FyNPWmRyNgYgq3rApAS64O14UsQH+iBKL+FCFkyF8tdZ2Lx7KmYaaILO0P+J2VbQz6sakGb6/NhNoAPkz7qcHGw4QDLEvDz58/h4zwdNkN1sH3DChzYGY+96ZHI3ByCbRsCsGm1L9ZHemF1iAei/V0R5jUPAe6zsMTJEjNHfTpg0hFINE8dwsfkQeowG6AOk97qcLSZgqdPn8ryFKVmm5VD9NPip3C1MsWMkT2QtTkEh7LisC89AllbQrE9eSVSE/yQFO2NhDBPxK4kw/R8Zpj2mmslGeDB6jAfqAbTfqoY2VMZ08YaorCwUGoQZGmIlYDv3LqF2eOGYN74gTiYGYtDWfHI3hGN3VvDkZEShK2J/swwvX7VEqwOXIRI3wUI9pyDZfOs4fAZEWxrwIf1UHVY6Kth0gBVjOutjBFd22H0AF1cvnRJllykZpuVgE+fOAY7o17wsDHG8X3rcGTPGuzPjMHetAjs3BSM9HUBSI33RVKkFxKCPRC93BWhS+fBx8WGATx9uAaEc13XZFsDjVrAqpg0QAVje3XAiC7fYnhXVezJ2ik1CLI0xErAGVs3Y9qgTgh0tcKJAykM5EO74pG9PQq7U8ORsSEQ2xKWY2OMN9aFeyIuwA3hy5zh62KDWaN0Gbj2RpofIH8cMIlgFZj2VoaxbjsYaLdFeOBKWXKRmm1WAo4J9oelfkckBLni5KFUnMhOwtE9iTiQEYd9WyORlRKC7esCsDnOBxsiyN20O1Z5O8Nvvg1mj+mKGSM6ggCmkD8GeKq+Gsz1VDG+jwpGd2+P4dptMMfeRmoQZGmIdYDLyysQ6OkC22EdkZYYgNNH0nDq4CYc37ceh3euxv60KOzZHIrMDYHYutoPyRFLsSbQHREEsIsNHMd2+wCYDNN2hiSL/9gkGKL5mDZYHZMHqmFCX1WM66GMkTrtYGk6ihV30qwD/LSkBL4LbDFjRCfs3RaDn47twOlDW3AiOxlHdyXi4PYY7NsSjqzkIKSRYTpqGRKCCGAXBrDTuB6YObIT7I06YvpwzU8ErIYpA9UxsZ8aTHupYpRuB0wZOQwPHnz9d9KsA1z8tATec6fAwVgbBzIS8PPxDPx4eBtO7d+IY7sTcSgjFtlbV2FXShDSE/2xMcqrFjCJYGvMMe3J1LU30sL04R0ZwGRCQ1wU0wi2GqyOqQPVMam/Gsx6q2JMNxVMNhiE3Nw8WY6uUrHNOsBPn5bAZ95UzDLRwb701fj5eCZ+IsP0gY04vmctjmTGYv+2iH8BJkP0qmXz4DPPCo7jesJ+pDbshmvBxkAT1sM0mMkMawM+CFDy0YhmZtpyKB+W+nwB4H7qAsBdVTDZcBDu3s2XCgRZGmEd4JKSUqz0cMTMkdpIWxuAn48JIvhkdgqO7k7AoR0x+H5LOHYmC67BSeQmK8AVoUvmwGuOJRzG9ICdUSdYG2jCapgGLIcK5pxJacVkAlwA3WqI4PprMYgP8/61cLsJrsFTRxnh77//liUbqdhmHeC3b98iJtgH9kadELd8Dn48ko7TB1Pxw/dJOJy1Bvu3R2Fvaigy1q9EarwP1oUvRoz/AgR5zIanowXsTbrDapgWpg3RhMVgDUzR5zPZQl8DTB6sgamDNQT7BmnAXI/PXHvNeiljdNf2MOrUBsP4rTDHzgakLV97Yh1gIui+XRmYMbIrvGeb4sQB8jEpBUf3rsPBzHjs3RaBnRuDkbZ2BTbGeCEhxB2Rvs4IcHOAh8MU2AzvCgv9jpg8UAOT9PiYMICPiUzWwMQBZBvJmkxJ9pn2UcOYHoLPv4YdW0FftRkGqrZCXGTk186WaR8rAV/58zLmThgC5wl62L8jHsf2bsDh3QnIzojBrq3h2JEcyMxHb4jyRHzgdwhfRp4m2cNtxiRMG6qLif01ML4fH6Z91TGuj1ptJjA1YNpXA2Z9NZnlsb34GNVdFSM6t8dQzVbQ69AUvVs3xCBNVZz99QwHWFYKlJaWwsvJGrYGukhfG4DDuxNxYGcc9qZHIDM1GNvWr8DGeG8kRnggeuVChC51gs98Oyy0mwjzQZ0xrrcaxvRSw6geqjDuroqR3dVg3F0dxj34MOmhAZPuGjDupgEjXTUY6ihjML8t+rdvgR4tG0K7iRLMDAzw+PFjWZ2eVO2yMoJramqwZX0CLAZoIiFwIQ5mrUZ2Rix2bwvHjo1B2LLOH0mxXlgT5o5IfxcEejpimbMN5tuOx/gB2jDppowR3ZQxXFcZBl2UYdBZBQZd1GDQRR2Gnfkw1OHDQFsdQ7RUMFC9Hfq0a4VuzZtAqyEPKko8LHH3wKtXr6QKQlbGWAmYvPh++tSPsNDTgo/TROzPjMO+7dHYtXUVtqcEYXOiH9bHLEFcyHcI93XGCg8HLJ1rBWcbM5j21cKILh1gqN0eQzu1x+CO7aHfURn6miq1WRX6mqrQ46ugv2o79G7XGt1aNoNWowZQ4fHQrlEjpG9LZ813llgJmPT28zk5mDl6EOaO10d2Rhz2bo/CztQwpCWtxMY1Plgb5YnYIFeE+cyFv/tMLJljCWcrU4zt1RGGWm0xRKMtBqm3hZ5KWwxQ+Rb9SFb+Fv06tEPfDu3Qu31b9GzTCl1bNId240ZQV1JCOx4PHTso4+TJU7IKOKnbZS3g3NxczJ1kjJnGfZjheU+6ADB5oyNltTfWRngy19+QZXPg5zYDix2nYp7lOIzuwccQfisMUm3JXFf7tP0Gvdt8g16tW6JHq5bo/k1LdGvZArotmqNz0ybo1KghNJSUoMzjoQ2PB92OWjh79pzUQcjKIGsBP37yBC4WY2A/oie+z4gVvJO1OYS5/ibHL0PCKg9EBSxAsJcTfF3t4THbAnOmjoVJNzXoqzRH/2+boHerxujeojG6Nm+MLk0bQadxIwZox4YNodmgAfhKSlDj8dCBx0NbHg/f8HjoptMZN278JSseUrfLWsDF5LUd24mwHtoF3+8gN1gRyNgkAJwU6401YYsQSSY4ljrBe6Ed3GdNgZPFGJjoqmBQ+ybo26oBujdXQpcmPGg35EFTiQd1Ho+5zhKgZDj+thZs61q4zXk89OnRE3fzv/4pStpTWAy4GB6zLDFVT+sD4B2bQpCauBwbYpZhdegiRCyfj8Aljli2wBZuDpPhaDEaxp2Vode2MXq3aICujXnoVAuX3EC15/FAYbbk8UByi9pM4Dbl8TCw/wA8YMn7WAQyawEXFRVhmbMDJvfTxJ60KOYOesfGYGxO9Mf6KC/EB7tjlZ8LAhbPhtd8G3w3wxyzJ4+CsU4H6LVphN7NeNBtyIMWTxC5yjwlZhgmUJvVwiRAhXMTHg+GQw3w5An39VE6QsisrKyshL+7C8z78LFzU5jgIxIBnOCPdVFLERfs9uEjkpezNb6bMQmzJptgJAHcuiF6NeVBt8H/AiYRS6ASmOLyKJPRqKiokNl5SdswayOYCBHq4wnzvhrYtnaFAHByEDavWY51kUsQG+iGUO95zEekpfOssHD6RDiYG38R4KZKSpg8aYq0GcjUHqsBR670YwBvjFmGLDLJkRyETWuWMx+RYla6ItR7LvzdBJ+BF06fAIdJIxnAA1o3RM+mSp8dwU0bNICdzXSZApG2cVYDjg0Lgnk/TawNW4SsLbWAV/shcZUnogNcEeI1F8u/s4en0zRmmnImAUxusiQE3KxBQzjOdpI2A5naYzXgbSnrMbl/R8StmI+sLRFITw7GRgI43BNRKxYiZOkc5ikSmeRwsTHDjAkjPgzRkkRw80aNsMRzqUyBSNs4qwFnZ2XCQk8bq7wckZUagfSkYKTE+2JN2GLmM3DwUif4LZzOTHI4W5vCfoIRRuh0ABmiJbnJatmkCWKiY6XNQKb2WA34wJ5dsBysiyD36f8GHCoAHOTpBN8Fdlg0awqcrcfBfvzwfwHu8pl30a2bN8eG9RtkCkTaxlkN+OiB/bA26InlzlP/BzAzybGYfC/YFu4OkzHPaiymfyHgti2/wZbULdJmIFN7rAZ8/rdzsDPqC69ZE/4FmHxtlExyrPSYDW8XGwbwXMuxmG5m+CGCezbl4XMjuEObNjh+/AeZApG2cVYDvvrnZdib6GHx9LHYmboKaRuCkRLny3wvONzXBSsXzWIe9LvNNMecaWNgZ/plgNXad8C5c79Jm4FM7bEa8LWrV5hnwt9ZGjOAmZusWsBh5EU7dwd4zRPMYs2ZNhq2pgYwqr3JkiSCNVTVcOHCBZkCkbZxVgPOy72D2abD4GJugJ2bBRGcHOeL+OBFCPNxxgr3mcybHK72E+E0dTRsxw2rBdwAPSQYorU1NXH9+g1pM5CpPVYDJi+ezzM3htO4gchICWWG6A+AvZ2xwu3/AXa0GAWbWsD9WzeAJBHcs1s3FBQUyBSItI2zGnBxcTEWWppipklf5td20pKCkRwriOBQb2f4fzeDeVWHTFPOnmLyL8CSRLBe//54+PChtBnI1B7rAbvZTYLd8B7YvNoPFHBc0CKELpuH5a4zmGnKBXbjGcDWY4cyQzSJYEkADxs8BI8ePZIpEGkbZzVg8sjQb74DrIbqIiXGm5nJIhEcF+SOUK+58Ftoz7yLNd/WDLMmG0MAuD0kBWw2dhzIO9lsSqwGTH51NmyZG6YO0sGGyKVITwpBcqwfA5g8aCDTlGQemgK2GjMERjrtMUDCCLa2tAT5CSc2JVYDrqqqQkzQckwZoIXEMI9awL6IDXJH8NK5zDQlednOxcYUDuYjIQBM5qIlG6Jnz5qNFy/Y8TPCtBOyGvDr16+RvDqGeaIUH+iK9KRQ5iaLPOwPXjIHPrXz0BSw5ejBTAT3byMA3Pkz56IXuS8C8cmmxGrA796/R8bWVOa9rBh/FwHgGF/EBLqBPGgg89D0QcPMSSNAAA/XEVyDezbj4XMBBwUFs+YbDbQTshow+fucvVlZzFsdkT5zsD05DMkE8EoBYG8XwYMG8iSJAJ42Sh/DdToIbrKaKTGAO4q8dFfXO1mNeTzExsZxgGnPkUdJAB8+fBjmffkI9XT4F+BAT6cP89DkSdKMiSMwzUQAuB+5Bn8mYPIC3qZNmznA8gAr7OPsud9gMVAbgW52zBCdFOOH6AA3BC4WfKOQPGgQADbCVJNBzBAtCeAWjRsjO/uAsGtWLLN6iCYK/5FzAbaGveE/36r2GiwAvHKx44cHDXMtxzBvcxDAhjodIAng9q3b4MSJk6yAKtxI1gPOybmAMD8vRPiRu+gwJEX7MhFMfqiFPkkSAB4OC+OBHwD3bKYEnQY8fOwa3LxhQ3TS0MTYMeNw6tRpYe1Yscx6wAUFD3D16jVcu3YdZ8+cw5FDB5CZthlJayIRHeSDgKULsWS+AxY6WMLRcjzMDfpjdI9OMOqihaGdtDBYqxP0dTpDv1t3DO3bD0ZDh8F07DjY2tjBzX0RQsNWIX51AlZFROHSpcusgCrcSNYDJt+0/+XXsyivqIDgTynfgvztDvn2AfnR7idP/kZh4UPcu3cf5CunV/68gpzzOTj/x3mc/z0HOecv4OLFSzh//gLO/fY7Y+v0jz/jxMnTOHL0OPZ9vx9btqYhOCSMdZMcBDTrAZOTeFZWhpyLl3Dp8mXcuZMLEtXk66XkaVNJSQlKS8vw7Fk5ysoq8ORJMQoLH+HBg4coKCjEvfsFyMvLx/Ubf+F8zkX8/MsZHD32A/bu248dGTuRmroV+/Zlo6ioWDgwWLPMesD0719JSX63ivxhFQH78OEj3L9fgPz8e8jNu4tbt27j0qU/8fvvOTh79jecOXOOKUnU/vHHeVy4eBlXrlzDzVu3cCc3j3ksSB4skJkrMjKwNbEeMFuFl1e7OcDyUlpBfjjAChJeXm45wPJSWkF+OMAKEl5ebjnA8lJaQX44wAoSXl5uOcDyUlpBfjjAChJeXm45wPJSWkF+OMAKEl5ebjnA8lJaQX44wAoSXl5uOcDyUlpBfjjAChJeXm45wPJSWkF+OMAKEl5ebjnA8lJaQX44wAoSXl5uOcDyUlpBfjjAChJeXm45wDJUOj8/HzweD1lZWTL08t+mpQLYzMyMORFyMjR36dLlvz3LeC9th3BJBJdGcnV1Zc7zY/Y+F7CojtLoGFIDTBonnMi6IiATUQhUUXEIlI8BEW7/fy2LA0y2iWrwOYCJVsQGTXWdB93/qaXMAJ89e5YRmpTyTKJCycs3gfslgEU7JGk3Af6lQSIzwLT3KgJwdHS0vLh+8POlgD8YElog5/HVAqZDjOiwSMHTa2NdJ0CHQXqcaA+nkUpEIMdQO0Rosv5fibaB2KTHkzo0AunoU5dv6pP4ED2W1iE+hP3QOnT/p3T8rzaC6YmRkxJOVAxhWERUCoceK7pNXD1Sh0Km9WhJRRT1T/fT9pHjqNB0G7VLj6VgyH6a6Da6TkrSZtpB6HZqk/gRbgs5jmz7WCLHCF+XP3a8uP0f9yKulsg22mDSIJpFT5ZUEQeEikChk5LYEBaU1BXtzaIgRJrEHE/bIiwuOY76FBWPrJM6FDq1SbbR9pFtnwtY1A/1L2yT+qIl1ZSuS1pKDbAoUCoCFYueFF0XbjCBRSEQMURtkWMpeFpPXGeh+4RLKpSwTdoWUYFpm4Xrk2UCmLaPrIs7jtgX9kGOq8sPtSnqn2wniXbM2tUvKmQGmLRK+KQJWNpwcSXt5aSOuP10GxGNpE8FTI6lvqmgdQkvDhypT3zLArCwTeKHdmLRjkL2SZpkCphAIyBIoqKKi2DhxtcVwcLHkOXPASx6PG0LBU5tKxIwhSsKnbZN0lKmgIUjmDRQNBLENboukUWPlQQwFU8WgMV1zLr8iNPiU7QR1eBT1mUGmIISjljaS0Ujh0Y5bTBZF91G6lBA5Li6ABOhRBMRn2wngpNUl/C0zaL1RcUXd5y4bXX5IfaFbdJLCG2fqP8vWf9fNSSwVtd1U5wpCpmcIM2iwEk9ApDuJ6Uo8P8CLFxPXN26hBcHibSF2CD7aKrrOOE2Ex91+RG1KU4T4XMQpw9ty8dKqQD+mBNuv+IU4AArTnu5eOYAy0VmxTnhACtOe7l45gDLRWbFOeEAK057uXjmAMtFZsU54QArTnu5eOYAy0VmxTnhACtOe7l45gDLRWbFOeEAK057uXjmAMtFZsU54QArTnu5eOYAy0VmxTmpd4B/+OEHzJ8/X3GKfmWe6x3gFStWIDExEQQ0l+rJv65QkHl5eQxcUhLQwokAz8zMZDKJcJJzcnI+HEI6BVkn9eh+8o8tbE/1KoIJQBq5BBQBTRMduilUAo+ApBAJYOF1CpvWZ2tZrwALA6IRS8GQdQJROJEOQYGLG9ZJJ6EdQLgem5brDWACShggjVAKQxQ42S4c8aQuhU3riI4CdDubynoDmACi107hkkITB1gYqvAyBSg8ItBtbCvrBWDRaKUQhKOaABYGRq7PZJ0mAphELE3ihnS6j01lvQBM747FCU8gEpg0gglEsk0YNqlHANNOQPYJwxZnly3b6gXgTxGbAq7rWHFDdF3Hsmk7B7iWFgeYTd1WTFu5CBYjCreJ/Qr8fzNEsx+VZGfAAZZMN9bU4gCzBpVkDeUAS6Yba2pxgFmDSrKGcoAl0401tTjArEElWUM5wJLpxppaHGDWoJKsoRxgyXRjTS0OMGtQSdZQDrBkurGmFgeYNagkaygHWDLdWFOLA8waVJI1lAMsmW6sqcUBZg0qyRrKAZZMN9bU+j8CWMSNZ2Xl5AAAAABJRU5ErkJggg==;" vertex="1" parent="1">
          <mxGeometry x="40" y="40" width="120" height="153" as="geometry" />
        </mxCell>
        <mxCell id="m4xRjhWuVDi_9xzCRnHj-5" value="" style="endArrow=classic;html=1;" edge="1" parent="1">
          <mxGeometry width="50" height="50" relative="1" as="geometry">
            <mxPoint x="168" y="121" as="sourcePoint" />
            <mxPoint x="247" y="121" as="targetPoint" />
          </mxGeometry>
        </mxCell>
        <mxCell id="m4xRjhWuVDi_9xzCRnHj-6" value="export recipes in&lt;br&gt;&lt;br&gt;Beer.xml format" style="text;html=1;resizable=0;autosize=1;align=center;verticalAlign=middle;points=[];fillColor=none;strokeColor=none;rounded=0;" vertex="1" parent="1">
          <mxGeometry x="158" y="96.5" width="100" height="50" as="geometry" />
        </mxCell>
        <mxCell id="m4xRjhWuVDi_9xzCRnHj-7" value="&lt;b&gt;Node.js service&lt;/b&gt;&lt;br&gt;&lt;br&gt;S3 bucket uploader" style="rounded=1;whiteSpace=wrap;html=1;fillColor=#eeeeee;strokeColor=#36393d;" vertex="1" parent="1">
          <mxGeometry x="263" y="86.5" width="120" height="60" as="geometry" />
        </mxCell>
        <mxCell id="m4xRjhWuVDi_9xzCRnHj-8" value="&lt;b&gt;S3 Bucket&lt;/b&gt;&lt;br&gt;&lt;br&gt;recipes.xml" style="ellipse;shape=cloud;whiteSpace=wrap;html=1;fillColor=#dae8fc;strokeColor=#6c8ebf;" vertex="1" parent="1">
          <mxGeometry x="250" y="260" width="128" height="90" as="geometry" />
        </mxCell>
        <mxCell id="m4xRjhWuVDi_9xzCRnHj-9" value="" style="endArrow=classic;html=1;" edge="1" parent="1">
          <mxGeometry width="50" height="50" relative="1" as="geometry">
            <mxPoint x="320" y="158" as="sourcePoint" />
            <mxPoint x="320" y="258" as="targetPoint" />
          </mxGeometry>
        </mxCell>
        <mxCell id="m4xRjhWuVDi_9xzCRnHj-10" value="&lt;b&gt;Lambda function&lt;br&gt;&lt;/b&gt;&lt;br&gt;XML -&amp;gt; DynamoDB" style="rounded=1;whiteSpace=wrap;html=1;fillColor=#d5e8d4;strokeColor=#82b366;" vertex="1" parent="1">
          <mxGeometry x="453" y="243.25" width="150" height="113.5" as="geometry" />
        </mxCell>
        <mxCell id="m4xRjhWuVDi_9xzCRnHj-11" value="trigger on&lt;br&gt;&lt;br&gt;file upload" style="text;html=1;resizable=0;autosize=1;align=center;verticalAlign=middle;points=[];fillColor=none;strokeColor=none;rounded=0;" vertex="1" parent="1">
          <mxGeometry x="383" y="280" width="70" height="50" as="geometry" />
        </mxCell>
        <mxCell id="m4xRjhWuVDi_9xzCRnHj-12" value="" style="endArrow=classic;html=1;entryX=1;entryY=0.47;entryDx=0;entryDy=0;entryPerimeter=0;" edge="1" parent="1" target="m4xRjhWuVDi_9xzCRnHj-11">
          <mxGeometry width="50" height="50" relative="1" as="geometry">
            <mxPoint x="368" y="303.5" as="sourcePoint" />
            <mxPoint x="418" y="253.5" as="targetPoint" />
          </mxGeometry>
        </mxCell>
        <mxCell id="m4xRjhWuVDi_9xzCRnHj-13" value="&lt;b&gt;DynamoDB&lt;/b&gt;&lt;br&gt;&lt;br&gt;recipes" style="shape=cylinder3;whiteSpace=wrap;html=1;boundedLbl=1;backgroundOutline=1;size=15;fillColor=#fff2cc;strokeColor=#d6b656;" vertex="1" parent="1">
          <mxGeometry x="660" y="257.5" width="70" height="85" as="geometry" />
        </mxCell>
        <mxCell id="m4xRjhWuVDi_9xzCRnHj-14" value="" style="endArrow=classic;html=1;entryX=-0.071;entryY=0.582;entryDx=0;entryDy=0;entryPerimeter=0;" edge="1" parent="1">
          <mxGeometry width="50" height="50" relative="1" as="geometry">
            <mxPoint x="610" y="307" as="sourcePoint" />
            <mxPoint x="657.03" y="306.97" as="targetPoint" />
          </mxGeometry>
        </mxCell>
        <mxCell id="m4xRjhWuVDi_9xzCRnHj-15" value="&lt;b&gt;Lambda function&lt;br&gt;&lt;/b&gt;&lt;br&gt;getRecipe" style="rounded=1;whiteSpace=wrap;html=1;fillColor=#d5e8d4;strokeColor=#82b366;" vertex="1" parent="1">
          <mxGeometry x="453" y="400" width="150" height="113.5" as="geometry" />
        </mxCell>
        <mxCell id="m4xRjhWuVDi_9xzCRnHj-16" value="" style="endArrow=classic;html=1;entryX=0.257;entryY=1.006;entryDx=0;entryDy=0;entryPerimeter=0;" edge="1" parent="1" source="m4xRjhWuVDi_9xzCRnHj-15" target="m4xRjhWuVDi_9xzCRnHj-13">
          <mxGeometry width="50" height="50" relative="1" as="geometry">
            <mxPoint x="610" y="350" as="sourcePoint" />
            <mxPoint x="680" y="398" as="targetPoint" />
          </mxGeometry>
        </mxCell>
        <mxCell id="m4xRjhWuVDi_9xzCRnHj-17" value="&lt;b&gt;API Gateway&lt;/b&gt;&lt;br&gt;&lt;br&gt;/recipe&lt;br&gt;/recipe/id" style="rounded=0;whiteSpace=wrap;html=1;fillColor=#e1d5e7;strokeColor=#9673a6;" vertex="1" parent="1">
          <mxGeometry x="263" y="426.75" width="120" height="60" as="geometry" />
        </mxCell>
        <mxCell id="m4xRjhWuVDi_9xzCRnHj-18" value="" style="endArrow=classic;html=1;" edge="1" parent="1">
          <mxGeometry width="50" height="50" relative="1" as="geometry">
            <mxPoint x="390" y="456.25" as="sourcePoint" />
            <mxPoint x="453" y="456.25" as="targetPoint" />
          </mxGeometry>
        </mxCell>
        <mxCell id="m4xRjhWuVDi_9xzCRnHj-19" value="&lt;b&gt;S3 Bucket&lt;/b&gt;&lt;br&gt;&lt;br&gt;React static content&lt;br&gt;html, js, css, images" style="ellipse;shape=cloud;whiteSpace=wrap;html=1;fillColor=#dae8fc;strokeColor=#6c8ebf;" vertex="1" parent="1">
          <mxGeometry x="57" y="394.25" width="153" height="125" as="geometry" />
        </mxCell>
        <mxCell id="m4xRjhWuVDi_9xzCRnHj-20" value="web browser" style="swimlane;" vertex="1" parent="1">
          <mxGeometry x="180" y="620" width="160.75" height="150" as="geometry" />
        </mxCell>
        <mxCell id="m4xRjhWuVDi_9xzCRnHj-53" value="" style="shape=image;verticalLabelPosition=bottom;labelBackgroundColor=#ffffff;verticalAlign=top;aspect=fixed;imageAspect=0;image=data:image/png,iVBORw0KGgoAAAANSUhEUgAAANwAAACbCAMAAAA+2QVnAAAABGdBTUEAALGPC/xhBQAAACBjSFJNAAB6JgAAgIQAAPoAAACA6AAAdTAAAOpgAAA6mAAAF3CculE8AAAC+lBMVEUAAABg1/dh2fxh2vtg2vti2vtg2fth2/xk2vkA//9b2/9g3Pti2/tg2vtg2vph2fph2/xi2fpg2vpV//9h2vth2vti2/tg2vxm5v9e3f9h2fth2vth2vti2/ti2/pf2/hh2fth2vth2vpi2fpi2/xh2fth2vtj1v9h2/ph2vth2vth2vti2/uA//9g2vth2vth3P9h2vth2vtj3Phf2Pth2vpm2f9h2vth2vtg2ftq1f9i2P9h2vth2vph2vth2vtg2/ph2/ti2fxh2vtg2vth2fpi3Pth2vth2vti2vth2Ptf2/lg2fxh2/ph2vti2fyAv/9h2vxh2/tg2vph2vtV4/9e1/9h2ftg2/th2vth2vti2vxi2vtf2fth2vth2vtj3Plg2vtg2/ph2vxh2/th2vth2vxg3fhg2/xh2vtg1/lh2vtmzP9h2/pg2vxg2fth2vth2vtg3/9h2vtg2vxh2vti2Phh2/th2vtg2/ph2vth2vth2/lh2vpj2vxh2vxi2vph2vth2vth2vtj2vti2vtg2vtk3v9g2/xh2/9i2P9h2vth2ftt2/9h2vti2/xh2vpi2vti2fti2/th2vtg2fph2vph2vtV1f9g2vte2f9g3/9a4f9i2vth2vth2vtg3/9m1v9h2vph2vti2vtd0f9h2fph2fpd3P9h2/th2vtg2vxi2vph2vph2vxi2/ti2fxi2vpi2/xg2fxi2vpg2vxi2fth2vxh2/xi2fxh2vxh2vxg2fth2vth2vxi2/tj1f9k2/9g2vtg2/th2vth2/pg2vtg2/th2/th2vth2vxh2vtg2/xi2vhi2/xh2vth2vtm3f9i2/pg2vtg2vpg2vth2/ti2fpf3Ppj2/pi2vti2fth2vph2vth2/ph2fth2vpe2Plk2Pdh2vte1/hh2fxg2flh2/xh2/ti2Pph2fph2vth2vth2/xh2vth2ftj2fpi2vxh3Pti2/tg2/xh2/th2vth2vtg2fxh2vti2ftg2fph2vv///+jUjwQAAAA/HRSTlMAIFd8iohyXCkBDkh4j6Sjk2swA83sr1oKHnnO/NljI8XyoC9Ovv0fMur+szkC0eQd6LIkO98Uw/iHDBquYfutYkdeicngQe/rqkIrUKH6SQTdP2+QCROwQO3IU0RDwtYs5jie0vRZJZT3LfAFqN4947gQ0JfaJ36DavXUKuFLlmCr1+U+7sEXVRUNtecHylbivHPE8zWmuwasGxgRzMf5CBk38X0LqWwWjM+faG6ZjVGnW0pmUrfbT5XcTHrAnUYSHEV/6XG5d7bGmNVNIpqxew9wgm20vaIzMXU8pfZpjmcuIZEmXyhUyzRkv9ibhIE2kjqFXYbTdJyLgGUAK1jKAAAAAWJLR0T9SwmT6QAAAAd0SU1FB+ELCgQzFZcemvUAAA1CSURBVHja7Vx5WFXHFb8aQZ6iqEQFBRGDaJ+CGg1SjKDihsJTUFATFDCiogS3VBT3HY24VBRUCChxiS0al4pijEti0LjgGtxo4kqbGq0xManePwpz5u4zF5L6HtPvu+cPfXfOmWF+787MWedxnEEGGWSQQQYZZJBBBhlkkEEGGWSQQTanGjVfq2VnX9vBVPUudeo61qvv1KBhI7aROdd+ncfUuElTl6p0cW3W3E3o497CmV1sHi15OXm2eqOSDiav1t6KLi3bsIqt7R94FZnbtdeR96npq+7Ad3BgE1vHTjyB3uxMk+/SnCT/lh+L2ExdeSL5/zGAJN7NyUyWf5tFcN1hboFBPXrW7RXcO1Cabp++Wuna/SR+/5CGAwY2Cg2zwOMg9rANDodDMgI/+w2RNpR5aKRSOCpE5AUO8xqMW4ePQC3vsAfuXYARLWsaOUqEEBMrlx0eJ0JrJd+SodA4mjlwTdC83lM2jhwjoIgfK7Xai0u23TilfBBqHc8atsgENK8J6sU6ZKIAZGgiNAW8L7QkealHmYTaJ7MGLpq2XbpNEbC0noqepwkb8QOCBfMnxJrOGLhkNKsZJBUxMwXDmeXKcbPn4IdOc0nDzEO8+YyBW4BmNYDIc1iIAS1qtHgJ/rh0GVE0FTHrMQYOzv3lZOaKIMHaTBA24GCypAPifsgYuJUVk+pHtV4cFfaxf22aYBryEFYxZnuh0/11usDqBAnbkgi63BpkX7IFLgrNeq2OxGjRZVik5wghxRjPFrjpaNrD9ET+LIDTPQvXIREXpsDFojnV15GIENdl+nodMdCKK5gCNw7NaQNdYOASmRego6QzkEQmU+DaoDltpPI3zZGfluGbqYJLkYCJKXCbwQ6msbNmAaoxk+H/7ACa5EcV7By2DpQsMDso3Nyl2FLeMrsxfJqSSBFFxkw6Y64qUr7uFCWIXdNO5b7b1nie5BuJNIJFtwCttzwy72PAk9e24mGAPzzNJIpmosBKS8bAQcRyG4k1F0wvy0h4bAqBoRyiv90R8bYzBg48UJLtMR27qzuEhhnwPHknQbgvYn3CGLhaaFarCYfJLsDyF2kLbsfOK8Ez+Cvi5DMGbgea1cdaxm5Ask6ml7dhZzxYK70HMT5lDNxwNKu9mvaxOD60L3p/amr3Awe6p6YOiu4Oh4r5bxrxg4gxjjFwU9ExUaCIGcUesj/syetQ3mH7Q7G58j4oIu/pw1qEqBC9iywwto589t7SDnzVyNzh6OeOx46jjidQS1fWsHGgqKNXnPxiypf876DCvfaLA7zQxwbMgWsGRogb/z+QGxhnPZgDt49/ZTSXLWQnTvWmz7Vfwaqv9s6zs0suKsrPLypKtrObt+H0mRidxbvKviMryI7PXOpNmGE8zkX6UjzPTJwF6pRC6OzddcdxBqAN/FozOe+z9R3PnU8EVW1pS+vZFvJx2YkeXo71YzSpyJQLE6oXmc+RDNWkcoovRl9CvMs8NcKO6QpIXAVF2TP5mnoBfBNajdUN52Zp1lOgkNLulge+t044JBPebV43/NxZuzxjQqsJWvtR8mlMLPFVnOPgJgRe1xvhRqDCw7kJVmjJREXxxq3qOCCDZAsy4bZXGradcRzlJM4J6A/yCUj1hKcz6KEml+Z1Wxaf5ofZ/OgcKwvVjbmKrK5uaMskoJhjmjvixNXRHyUAAkaFyL7cgvqXothR1o5dskXRy7an//uyOprFQuso/M1zYnh5X2UDQSadd5R8ObFS41axdL4ELbcdtuuTxVM/bLbUnC/G1LOgLuGoIv5Y4+/f1q+/5ztXxVCn4d34iSHLphLPIUyEF7fVVthCRc12+o4i8ormYtnJccGg4gbKO2ULnXrLzSuPBGFv3kV7OEGxkO8cFDqVvmsbbKkWoZKpp4oDWYzLXMcEdVXCJsXJulaWVrUD9eiBY2TFqiHrviXomKa2wHYMF1p419PEuoYgxjSuFegvKQJ0fZFSfa2RIklT+4M6MEGuX3N2BNzDp7KbDSqL7mMtNGK/lrcF3ukD2CoXpd2mMZJXdlTtVDMYNOmE43UuPpg9H1o9tIzN/7PnSdyNsNeguFBMsmWO0Zoe2WLoK7MAFgL69wJp1LvYEMpOtDK4hvB3ppHP5mjZ9CWX8zLJrTkgsstkrWSDZjkOl122LrZc8GOSoshsk7s4TXfR5o3sTwIXJxqdJrF0mP8H5c9GQdVcf+tmXCFS5/9PGl/MDctOhlCyR3pMFDgktn1PtUITyMfNK6XtlRTBRJXiaRZI4eTPyeAkRWESSmYnbqskot3EquBQJYX3JrpAmGbHce+Qwf1LkvhUg1dDy1DkaaVVnVP0J8L1/CBcHJup+kK0JEvmmfCBoXex4BFSGNZMlmeiOTTXkbhk0cTVKZGgNTIR7Pzt1BkY3n+ANV8d0uApiZWqCotMDfqSwcnKF6fjaGeRjn5NRxamVfccWO4P6AKCvv5BampHBhciSTgJVQ70JMED3vopV7BuC6mro4swdUsNlX2lIenYHyeGqetSvVowY65YFVwbsJJu0/hO4twlQ6oN8QKB2zLNCatTX7UBTDQP65ooYboBuygp9pFzV2y9TQInrdv70hWEwBPkcR/zlVUovRLqmIezoiZ9A0U+k7v+Wmwpkq4MkjU/IRp1wTiGfdfabsF8IaxRh2pawr0X87/F9l7apJxUid8eVm0xlCsO1o5aJ0hja1uNPhCUsDZOvhi+4OMF6nqix2pwsuQ5fBVjXCDsckQbsHHXHsDW8+iGCRskWHWJhXuK2ktwGTZ/SOJ8n6MoA+7Oqa3m/dxh9H+YasjIYGFHXku0ATguU9wkhWWKnecDmeJozoTK0/hHsunEfiiLsspc6sSFgqG5HvJdCgPLVFYodrJRmaJzPcnMGC5r/xGKZ3yEmx1Ki+P6s+blVoZn9gyFBXlT2p9nNZnHCMnmHm+7lMhPUjh/nZdoVuyRqktg6ca7qnWx2qc5kS5ZK47oYytxHXitky6I9rBlyNl1rSwT03AqrKE+6BGFTx/mVM3/gjIBf1R4AtW2S2D5TW0YI/2FpXc5m5IpX5ZzLC0Z7iNsmg6wDX/mKYefMkyoMAme46OF8+nrVCrLsvxi+7qUE7/KKxfint76D/pwGLguSRBs0Y165MIpn4RP3SewLm89jZOnacNcueqghyEEq3GkECquQg7LTvl63yBYaRk3uOqiLsXqTK9b2WZFDNN7Er33+kDFxtwSWqq2Yw725aqTzu+ZqP6y+2w/FRFVvmyh7KuAGvRJey4eqVHD7bfPUY+TPr7679EFzCTd91659h6u2r5H64htspZDM1YSBnhuf4ljgqYnx9ArZrxftCiLvu7hl5WFDj3nrKydndcfq/ndF4H0PuHPJnAM0Z0Gr648asFWjjEa9OrANWMNG67a25PvtND790EKnPbDy1/UoSNGCAypigtWdfreDAn/TaWJFvcNp7pUqHuovC9gDhzKw1hyRVfmfPQBu5DseH1U/uEZu4vOnZfcb2SbmC8xhu2SmRiL9rmAUWwMKc7I6J2d3TsjozhkQQot4AMxzsWMgZtE9KPLNfUqwPGzvLEIByq0dwCfMXmvYL4qDS6Fy+CuqllWb9MTNmTCDVpgeShj4F5Ds0olcE5iKKLycsDRwZcE4dEQWWMM3G56DuoidopwwDULajL43STZ47rZ4+oiKPU5TvRrcUDpOeIKFwXPpBHHQUdNJ8bAIQvfQr5rOrUAh1vKVZnz2/iy+BbyOMjHNeeyBQ5VLHSgGdb9hdCjCasGT5oPCkFBV7bAIedtF407Giu2EuzmWE7SJEHR3WcLHIp2fURlz1X4N2Z69hL891imsJnMereNy6mFHJxOeniDTiFRdRFUAnyjI5EsYWugIwYFfz8yBc6l8rthuwVsG/XCkHuRyCS29hzKL/rqCPjcE8tr9eotrjG45+CeeBKdH7lRWpbNt9DloKJ2M1vgUAQsgbrg/BS/fNlnIHUcUOKD2QI3RVf5NkpShSRXUwQTkZU9gjHz61c0aYpu/kkIJd++iQMs5lrkl/MQV0mzRVC7/YJ4kn4tvDA7E1cmFHMcJf7A6kuceGbREx9F4Kx/JKQR0G9NdGksFFc+oGoC1jzxzHhykUzkDMHw6ofL2e+L99KGaV7eCk8WNQHHvYmm9VjVeiRcvM0k/pCl9DOJKRdVTh3U/M0xsQYOqp8nKs7L9l9J9UTyZM9li/jzuAfkRQp+kBGxYw0bFwk1o0dFEM77JWieLVT7cKHImnNT1Ni5YJ64dWYOHPcZNj8mVSwql5PBsp8vGKVJ2EfWk4Luge2uxjqX22fHcGHGXvawCVlwnv+yZdcCi/yHuE+RDJcIxX1Xt7g1Qo1RPJM/wj2AmHAzl1AsycFD+vH6V0WYoh2E/H9rHdds+beEVMI9jlE6kKN6a9fa63fwuzJClYZ9wjFLjc7Ic78vqnDs5ZYVy76RVYs5lmnS+F3lk81zD8lvW1VVXKfuldO+cUvWtK7VnmOfXNI4gwwyyCCDDDLIIIMMMsgggwwyyCCD/l/ov25K56AyeVT/AAAAJXRFWHRkYXRlOmNyZWF0ZQAyMDE3LTExLTEwVDA0OjUxOjIxKzAwOjAwkP2w8QAAACV0RVh0ZGF0ZTptb2RpZnkAMjAxNy0xMS0xMFQwNDo1MToyMSswMDowMOGgCE0AAAAASUVORK5CYII=;" vertex="1" parent="m4xRjhWuVDi_9xzCRnHj-20">
          <mxGeometry y="26.74" width="160.75" height="113.26" as="geometry" />
        </mxCell>
        <mxCell id="m4xRjhWuVDi_9xzCRnHj-21" value="" style="endArrow=classic;html=1;exitX=0.343;exitY=-0.007;exitDx=0;exitDy=0;exitPerimeter=0;" edge="1" parent="1" source="m4xRjhWuVDi_9xzCRnHj-20" target="m4xRjhWuVDi_9xzCRnHj-19">
          <mxGeometry width="50" height="50" relative="1" as="geometry">
            <mxPoint x="258" y="750" as="sourcePoint" />
            <mxPoint x="308" y="700" as="targetPoint" />
          </mxGeometry>
        </mxCell>
        <mxCell id="m4xRjhWuVDi_9xzCRnHj-22" value="" style="endArrow=classic;html=1;exitX=0.5;exitY=0;exitDx=0;exitDy=0;" edge="1" parent="1" source="m4xRjhWuVDi_9xzCRnHj-20">
          <mxGeometry width="50" height="50" relative="1" as="geometry">
            <mxPoint x="268" y="760" as="sourcePoint" />
            <mxPoint x="320" y="490" as="targetPoint" />
          </mxGeometry>
        </mxCell>
        <mxCell id="m4xRjhWuVDi_9xzCRnHj-23" value="" style="endArrow=none;dashed=1;html=1;strokeWidth=5;fillColor=#0050ef;strokeColor=#001DBC;" edge="1" parent="1">
          <mxGeometry width="50" height="50" relative="1" as="geometry">
            <mxPoint y="200" as="sourcePoint" />
            <mxPoint x="830" y="200" as="targetPoint" />
          </mxGeometry>
        </mxCell>
        <mxCell id="m4xRjhWuVDi_9xzCRnHj-24" value="" style="endArrow=none;dashed=1;html=1;strokeWidth=5;fillColor=#0050ef;strokeColor=#001DBC;" edge="1" parent="1">
          <mxGeometry width="50" height="50" relative="1" as="geometry">
            <mxPoint y="600" as="sourcePoint" />
            <mxPoint x="820" y="600" as="targetPoint" />
          </mxGeometry>
        </mxCell>
        <mxCell id="m4xRjhWuVDi_9xzCRnHj-25" value="&lt;font style=&quot;font-size: 26px&quot;&gt;Desktop&lt;/font&gt;" style="text;html=1;resizable=0;autosize=1;align=center;verticalAlign=middle;points=[];fillColor=none;strokeColor=none;rounded=0;" vertex="1" parent="1">
          <mxGeometry x="717" y="20" width="110" height="20" as="geometry" />
        </mxCell>
        <mxCell id="m4xRjhWuVDi_9xzCRnHj-26" value="&lt;span style=&quot;font-size: 26px&quot;&gt;AWS Cloud&lt;/span&gt;" style="text;html=1;resizable=0;autosize=1;align=center;verticalAlign=middle;points=[];fillColor=none;strokeColor=none;rounded=0;" vertex="1" parent="1">
          <mxGeometry x="677" y="223.25" width="150" height="20" as="geometry" />
        </mxCell>
        <mxCell id="m4xRjhWuVDi_9xzCRnHj-27" value="&lt;span style=&quot;font-size: 26px&quot;&gt;Client&lt;/span&gt;" style="text;html=1;resizable=0;autosize=1;align=center;verticalAlign=middle;points=[];fillColor=none;strokeColor=none;rounded=0;" vertex="1" parent="1">
          <mxGeometry x="712" y="620" width="80" height="20" as="geometry" />
        </mxCell>
      </root>
    </mxGraphModel>
  </diagram>
</mxfile>
